<?xml version="1.0" encoding="utf-8"?>
<!-- Generator: Adobe Illustrator 19.0.1, SVG Export Plug-In . SVG Version: 6.00 Build 0)  -->
<svg version="1.1" id="Layer_1" xmlns="http://www.w3.org/2000/svg" xmlns:xlink="http://www.w3.org/1999/xlink" x="0px" y="0px"
	 viewBox="0 0 418 301" enable-background="new 0 0 418 301" xml:space="preserve" width="400px" height="250px">
<g>
	<defs>
		<rect id="SVGID_1_" width="418" height="301"/>
	</defs>
	<clipPath id="SVGID_2_">
		<use xlink:href="#SVGID_1_"  overflow="visible"/>
	</clipPath>
	<g clip-path="url(#SVGID_2_)">
		<g>
			<polygon fill="#F26E25" points="168.7,343.8 297.5,352 416.5,302.1 381.3,99 134.5,140.7 			"/>
			<polygon fill="#F26E25" points="393.7,168.5 374.5,54.6 313.7,110.7 			"/>
			<polygon fill="#F26E25" points="144.8,202.5 134.1,136.4 127.6,96.6 202.3,130.4 			"/>
			<polygon fill="#272724" points="270.7,270.8 297.2,266.3 322.8,234.8 252.3,246.6 			"/>
			<path fill="#ECDECA" d="M270.7,270.8c-10.1-59.8-72.9-131.7-134.9-121.3l18.4,109.3L270.7,270.8z"/>
			<path fill="#ECDECA" stroke="#ECDECA" stroke-miterlimit="10" d="M298.2,266.3c-10.1-59.8,23.9-148,85.3-158.3l18.4,109.3
				L298.2,266.3z"/>
			<g>
				<path fill="#272724" d="M193.9,225.5c4.4,3.1,10.5,2.1,13.6-2.3c3.1-4.4,2.1-10.5-2.3-13.6c-4.4-3.1-10.5-2.1-13.6,2.3
					C188.5,216.3,189.5,222.4,193.9,225.5z"/>
				<path fill="#272724" d="M356.9,198.1c-3.1,4.4-9.2,5.4-13.6,2.3c-4.4-3.1-5.4-9.2-2.3-13.6c3.1-4.4,9.2-5.4,13.6-2.3
					C359,187.6,360,193.7,356.9,198.1z"/>
			</g>
		</g>
		<g>
			<path fill="#272724" d="M214.3,159.1c12.6-11.4,24.1-23.1,34-34.6c18.7-21.7,32-42.6,38.2-59.5c4.2-11.5,3.6-20.8-1-33.4
				c-0.3-0.7-0.9-1.1-1.5-0.7c-3.2,2.3-11.2,7.9-13.8,9.5c-2.4,1.4-32.7,22.2-32.8,22.1l-18.8-20.8c-0.3-0.4-0.7-0.9-1-1.3
				c-16.4-18.2-57.4-7.9-91.5,23S77.4,133.9,93.8,152c0.3,0.3,0.6,0.6,0.9,0.9l19.4,21.4l-32.9,43.1c1.3,1.5,2.9,2.6,4.7,3.5
				C107.5,232,162.2,206.2,214.3,159.1z"/>
			<path d="M214.3,159.1c12.6-11.4,24.1-23.1,34-34.6c18.7-21.7,32-42.6,38.2-59.5c4.2-11.5,3.6-20.8-1-33.4
				c-0.3-0.7-0.9-1.1-1.5-0.7c-3.2,2.3-11.2,7.9-13.8,9.5c-2.4,1.4-32.7,22.2-32.8,22.1l-18.8-20.8c-0.3-0.4-0.7-0.9-1-1.3
				c-16.4-18.2-57.4-7.9-91.5,23S77.4,133.9,93.8,152c0.3,0.3,0.6,0.6,0.9,0.9l19.4,21.4l-32.9,43.1c1.3,1.5,2.9,2.6,4.7,3.5
				C107.5,232,162.2,206.2,214.3,159.1z"/>
		</g>
		<g>
			
				<path fill="none" stroke="#F26E25" stroke-width="39.6563" stroke-linecap="round" stroke-linejoin="round" stroke-miterlimit="10" d="
				M115.9,328.2c-3.7-12.5-5.3-25.8-4.8-39.6l2-47.6"/>
			<path fill="#ECDECA" d="M92.5,258.2l1.5-35.5c0.4-10.3,9.8-18.7,20.8-18.8c11-0.1,19.6,8.2,19.2,18.5l-1.5,35.5"/>
		</g>
	</g>
</g>
</svg>
